# Blender v2.93.8 OBJ File: ''
# www.blender.org
mtllib SB_Bat.mtl
o SB_Bat
v 0.157050 0.233181 0.208909
v -0.021927 -0.039056 0.143302
v 0.270089 0.233181 -0.101662
v 0.090813 -0.039056 -0.166448
v -0.083419 -0.038942 -0.166597
v 0.029385 -0.038942 0.143332
v -0.285470 0.217373 -0.092894
v -0.172770 0.217373 0.216747
v -0.004166 -0.032230 -0.117806
v -0.074442 -0.015427 -0.016102
v 0.066110 -0.015427 -0.016102
v 0.048542 -0.032230 0.027390
v -0.004166 -0.084938 0.027390
v -0.004166 -0.032230 0.080097
v -0.056874 -0.032230 0.027390
v -0.004166 0.020477 0.027390
v -0.004166 -0.032230 -0.025318
v 0.039267 -0.076221 -0.016102
v -0.047599 -0.076221 -0.016102
v -0.004166 -0.032230 0.037584
v -0.004166 0.022146 -0.016102
vt 0.000500 -0.999501
vt 0.000500 -0.000499
vt 0.999500 -0.998180
vt 0.999500 -0.001820
vt 0.999501 -0.000500
vt 0.000500 -0.000963
vt 0.999500 -0.999500
vt 0.000500 -0.999037
vt 0.609067 -0.500000
vt 0.500000 -0.500000
vt 0.500000 -0.390933
vt 0.390933 -0.500000
vt 0.500000 -0.609067
vt 0.500000 -0.500000
vt 0.562881 -0.398257
vt 0.437119 -0.398257
vt 0.500000 -0.489259
vt 0.398257 -0.524018
vt 0.500000 -0.489259
vt 0.601743 -0.524018
vt 0.500000 -0.601743
vn -0.7697 0.5736 -0.2802
vn 0.7198 0.6428 -0.2620
vn 1.0000 0.0000 0.0000
vn 0.0000 0.0000 1.0000
vn 0.0000 -1.0000 0.0000
vn -1.0000 0.0000 0.0000
vn 0.0000 1.0000 0.0000
vn 0.0000 0.0000 -1.0000
vn 0.5683 -0.8127 0.1284
vn -0.5683 -0.8127 0.1284
vn 0.0000 -0.0001 -1.0000
vn -0.9443 0.3048 0.1238
vn 0.0000 -0.0007 1.0000
vn 0.9443 0.3048 0.1238
vn 0.0000 0.9917 0.1286
usemtl SB_Bat
s 1
f 1/1/1 3/2/1 2/3/1
f 3/2/1 4/4/1 2/3/1
f 5/5/2 7/6/2 6/7/2
f 7/6/2 8/8/2 6/7/2
f 12/9/3 14/10/4 13/11/5
f 14/10/4 15/12/6 13/11/5
f 14/10/4 16/13/7 15/12/6
f 14/10/4 12/9/3 16/13/7
f 12/9/3 17/14/8 16/13/7
f 12/9/3 13/11/5 17/14/8
f 13/11/5 15/12/6 17/14/8
f 15/12/6 16/13/7 17/14/8
f 18/15/9 19/16/10 9/17/11
f 19/16/10 10/18/12 9/17/11
f 19/16/10 20/19/13 10/18/12
f 19/16/10 18/15/9 20/19/13
f 18/15/9 11/20/14 20/19/13
f 18/15/9 9/17/11 11/20/14
f 9/17/11 21/21/15 11/20/14
f 9/17/11 10/18/12 21/21/15
f 10/18/12 20/19/13 21/21/15
f 20/19/13 11/20/14 21/21/15
